<?xml version="1.0" standalone="no"?>
<!DOCTYPE svg PUBLIC "-//W3C//DTD SVG 20010904//EN"
 "http://www.w3.org/TR/2001/REC-SVG-20010904/DTD/svg10.dtd">
<svg version="1.0" xmlns="http://www.w3.org/2000/svg"
 width="418.000000pt" height="291.000000pt" viewBox="0 0 418.000000 291.000000"
 preserveAspectRatio="xMidYMid meet">
<metadata>
Created by potrace 1.15, written by Peter Selinger 2001-2017
</metadata>
<g transform="translate(0.000000,291.000000) scale(0.100000,-0.100000)"
fill="#000000" stroke="none">
<path d="M1530 2065 l0 -255 900 0 900 0 0 255 0 255 -900 0 -900 0 0 -255z
m405 153 c32 -14 55 -56 55 -99 0 -22 -10 -41 -34 -65 l-34 -34 -102 0 -102 0
-34 34 c-25 25 -34 42 -34 68 1 41 20 77 51 94 31 17 198 18 234 2z m1230 0
c32 -14 55 -56 55 -99 0 -22 -10 -41 -34 -65 l-34 -34 -102 0 -102 0 -34 34
c-26 26 -34 42 -34 71 0 29 8 45 34 71 34 34 34 34 130 34 52 0 107 -5 121
-12z"/>
<path d="M2950 2151 c-14 -27 -13 -37 6 -55 22 -23 64 -21 64 3 0 28 26 47 45
31 8 -7 15 -21 15 -31 0 -13 7 -19 24 -19 45 0 72 50 44 78 -8 8 -45 12 -100
12 -76 0 -89 -2 -98 -19z"/>
<path d="M1159 1736 c-69 -25 -107 -57 -230 -196 l-124 -140 -161 0 c-167 0
-217 -9 -234 -40 -6 -11 -10 -106 -10 -215 l0 -196 26 3 c23 2 29 10 38 48 23
89 94 173 181 212 76 34 182 32 257 -5 78 -38 143 -112 167 -191 l19 -61 188
0 189 0 0 220 0 220 -252 3 -253 2 0 24 c0 13 7 27 16 30 9 3 123 6 255 6
l239 0 0 145 0 145 -137 0 c-87 -1 -152 -6 -174 -14z m266 -706 l0 -25 -163
-3 c-138 -2 -163 0 -168 13 -4 8 -4 22 0 30 5 13 30 15 168 13 l163 -3 0 -25z"/>
<path d="M1530 1710 l0 -40 900 0 900 0 0 40 0 40 -900 0 -900 0 0 -40z"/>
<path d="M1532 1283 l3 -328 493 -3 c389 -2 493 0 497 10 50 143 93 201 183
245 79 39 183 39 263 2 92 -43 158 -124 177 -216 l8 -38 84 0 85 0 3 328 2
327 -900 0 -900 0 2 -327z m435 104 c32 -32 37 -43 40 -94 5 -75 -19 -116 -83
-144 -138 -62 -268 98 -180 222 31 45 67 60 129 56 51 -3 62 -8 94 -40z"/>
<path d="M710 1161 c-156 -51 -227 -209 -156 -349 114 -224 456 -142 456 110
0 98 -47 175 -134 220 -43 22 -128 32 -166 19z m105 -135 c67 -28 87 -125 36
-176 -16 -16 -40 -32 -55 -36 -38 -9 -74 3 -107 36 -53 53 -35 145 35 176 40
17 49 17 91 0z"/>
<path d="M2780 1161 c-108 -33 -180 -128 -180 -237 0 -71 19 -115 73 -169 61
-60 119 -81 198 -72 176 21 272 222 178 373 -51 83 -178 132 -269 105z m105
-135 c44 -19 67 -56 67 -107 -2 -108 -147 -147 -203 -55 -36 58 -15 131 45
160 39 19 48 19 91 2z"/>
</g>
</svg>
