<?xml version="1.0" standalone="no"?>
<!DOCTYPE svg PUBLIC "-//W3C//DTD SVG 20010904//EN"
 "http://www.w3.org/TR/2001/REC-SVG-20010904/DTD/svg10.dtd">
<svg version="1.0" xmlns="http://www.w3.org/2000/svg"
 width="163.000000pt" height="167.000000pt" viewBox="0 0 163.000000 167.000000"
 preserveAspectRatio="xMidYMid meet">
<metadata>
Created by potrace 1.15, written by Peter Selinger 2001-2017
</metadata>
<g transform="translate(0.000000,167.000000) scale(0.100000,-0.100000)"
fill="#000000" stroke="none">
<path d="M646 1314 c-127 -31 -254 -126 -305 -228 -39 -80 -53 -145 -56 -274
-2 -90 -7 -128 -18 -140 -43 -50 -47 -94 -14 -143 25 -37 74 -57 145 -58 35
-1 49 5 73 29 l30 29 52 -39 c88 -68 144 -85 277 -85 108 0 119 2 180 31 36
17 82 45 102 63 l36 31 30 -30 c25 -24 39 -30 75 -30 88 0 152 38 163 96 7 38
0 63 -27 98 -17 22 -20 43 -23 153 -3 96 -9 144 -24 193 -51 156 -174 265
-344 305 -80 19 -273 18 -352 -1z m349 -117 c28 -16 71 -46 95 -68 50 -45 56
-44 -79 -9 -53 14 -107 20 -186 20 -105 0 -138 -5 -285 -46 -25 -7 -25 -7 -6
15 26 29 118 89 163 106 26 10 70 14 143 12 93 -2 111 -6 155 -30z m-483 -211
c0 -12 1 -28 2 -36 1 -13 44 -15 309 -18 241 -2 308 0 311 10 2 7 8 31 12 52
12 54 29 55 54 6 16 -31 21 -60 21 -110 0 -80 -3 -95 -44 -220 -37 -115 -65
-148 -166 -198 -73 -36 -78 -37 -186 -37 -104 0 -114 2 -175 32 -94 46 -144
92 -157 145 -6 24 -21 70 -33 103 -24 64 -37 181 -26 238 4 19 16 47 28 62 20
26 22 27 35 9 7 -10 14 -27 15 -38z"/>
<path d="M595 885 c-32 -31 -32 -74 0 -109 49 -53 135 -17 135 57 0 70 -85
103 -135 52z"/>
<path d="M945 885 c-29 -28 -31 -54 -10 -94 37 -73 145 -42 145 42 0 70 -85
103 -135 52z"/>
</g>
</svg>
