<?xml version="1.0" standalone="no"?>
<!DOCTYPE svg PUBLIC "-//W3C//DTD SVG 20010904//EN"
 "http://www.w3.org/TR/2001/REC-SVG-20010904/DTD/svg10.dtd">
<svg version="1.0" xmlns="http://www.w3.org/2000/svg"
 width="179.000000pt" height="165.000000pt" viewBox="0 0 179.000000 165.000000"
 preserveAspectRatio="xMidYMid meet">
<metadata>
Created by potrace 1.15, written by Peter Selinger 2001-2017
</metadata>
<g transform="translate(0.000000,165.000000) scale(0.100000,-0.100000)"
fill="#000000" stroke="none">
<path d="M611 1366 c-54 -19 -112 -75 -140 -135 -22 -48 -26 -69 -26 -151 0
-86 3 -100 29 -148 17 -29 47 -69 68 -88 l38 -34 3 -158 c2 -153 3 -158 31
-210 35 -62 110 -135 134 -130 20 4 22 66 7 225 -7 76 -5 100 9 136 41 108
143 134 229 57 l32 -28 0 -194 c0 -187 1 -193 21 -196 33 -5 71 34 109 111 45
93 74 206 84 334 8 99 9 103 47 148 77 92 88 113 92 180 7 111 -53 211 -160
264 -103 52 -134 47 -294 -50 -83 -49 -141 -78 -151 -75 -22 9 -5 27 72 72 36
21 62 41 58 45 -36 33 -224 50 -292 25z m549 -81 c60 -31 113 -128 103 -189
-6 -40 -61 -137 -80 -144 -21 -6 -15 21 17 84 16 32 30 70 30 85 0 40 -55 118
-95 135 -35 14 -48 44 -20 44 9 0 29 -7 45 -15z"/>
</g>
</svg>
