<?xml version="1.0" standalone="no"?>
<!DOCTYPE svg PUBLIC "-//W3C//DTD SVG 20010904//EN"
 "http://www.w3.org/TR/2001/REC-SVG-20010904/DTD/svg10.dtd">
<svg version="1.0" xmlns="http://www.w3.org/2000/svg"
 width="172.000000pt" height="160.000000pt" viewBox="0 0 172.000000 160.000000"
 preserveAspectRatio="xMidYMid meet">
<metadata>
Created by potrace 1.15, written by Peter Selinger 2001-2017
</metadata>
<g transform="translate(0.000000,160.000000) scale(0.100000,-0.100000)"
fill="#000000" stroke="none">
<path d="M350 1331 l-25 -7 -3 -517 c-2 -508 -2 -516 18 -527 12 -6 64 -10
127 -8 l108 3 3 524 c1 381 -1 527 -9 532 -15 9 -187 9 -219 0z"/>
<path d="M660 805 l0 -535 35 0 35 0 0 153 c0 108 4 158 13 170 10 15 27 17
112 15 l100 -3 5 -165 5 -165 35 0 35 0 3 524 c2 413 0 526 -10 533 -7 4 -93
8 -190 8 l-178 0 0 -535z m224 339 c7 -22 18 -33 40 -40 50 -15 43 -74 -8 -74
-16 0 -24 -9 -31 -32 -17 -57 -74 -49 -75 10 0 17 -6 22 -24 22 -31 0 -57 25
-49 48 9 22 23 32 51 32 15 0 22 6 22 19 0 38 12 52 39 49 19 -2 28 -11 35
-34z"/>
<path d="M1114 1327 c-2 -7 -3 -246 -2 -532 l3 -520 113 -3 c66 -1 120 2 132
8 20 10 20 21 20 525 0 480 -1 515 -17 523 -29 14 -243 14 -249 -1z"/>
<path d="M810 405 l0 -136 38 3 37 3 0 130 0 130 -37 3 -38 3 0 -136z"/>
</g>
</svg>
